 <svg class="logo-brand" viewBox="0 0 1024 1024" xmlns="http://www.w3.org/2000/svg">
                        <g transform="translate(0,1024) scale(0.1,-0.1)" stroke="none">
                            <!-- S path filled with #ce4f20 -->
                            <path fill="#ce4f20" d="M2255 7889 c-165 -17 -240 -31 -338 -66 -164 -57 -257 -112 -365
                            -217 -174 -168 -264 -374 -280 -644 -16 -264 12 -432 100 -612 46 -94 62 -116
                            152 -206 110 -109 187 -160 316 -205 77 -27 253 -64 350 -73 30 -3 417 -8 860
                            -11 993 -6 991 -6 1058 -35 62 -27 117 -84 131 -137 16 -58 13 -143 -8 -188
                            -21 -46 -79 -101 -130 -122 -98 -41 -119 -42 -1304 -44 l-1137 -2 -53 -101
                            c-30 -56 -120 -221 -200 -368 -81 -146 -147 -269 -147 -272 0 -11 2781 -7
                            2891 4 417 41 702 215 845 515 70 148 97 271 110 501 8 138 -12 288 -52 406
                            -86 254 -319 455 -593 513 -149 31 -244 35 -999 35 -1003 1 -1090 7 -1201 87
                            -89 64 -123 173 -89 286 18 60 98 142 158 162 83 28 245 32 1175 34 495 1 902
                            5 906 9 3 4 55 113 114 242 60 129 139 299 176 378 l68 142 -1217 -1 c-669 -1
                            -1253 -5 -1297 -10z"/>
                            <!-- P path filled with #3b3a39 -->
                            <path fill="#3b3a39" d="M5347 7868 c-8 -18 -76 -170 -152 -338 -76 -168 -148 -328 -161 -357
                            l-23 -51 1485 -1 c988 -1 1510 -5 1560 -12 105 -14 209 -53 271 -101 121 -92
                            169 -320 101 -470 -34 -74 -70 -113 -132 -143 -111 -54 -107 -54 -1458 -55
                            l-1247 0 -1 -880 0 -880 433 0 432 0 -2 505 -2 505 707 0 c389 1 759 1 822 1
                            333 1 618 49 785 131 91 46 207 132 281 211 192 204 278 453 276 803 -2 368
                            -105 642 -314 840 -151 142 -311 224 -534 273 -196 43 -210 44 -1691 48
                            l-1422 4 -14 -33z"/>
                            <path d="M8593 3922 c-76 -12 -93 -18 -93 -33 0 -11 9 -19 23 -21 20 -3 22 -8
                            20 -53 -1 -27 -30 -176 -63 -330 -34 -154 -63 -291 -66 -305 l-6 -25 70 3 70
                            4 17 86 c16 86 38 137 54 128 4 -3 23 -46 40 -96 35 -98 63 -130 113 -130 33
                            0 63 13 96 43 27 25 30 51 4 43 -10 -4 -25 0 -35 6 -21 17 -127 199 -121 209
                            2 5 43 31 89 59 88 53 104 74 91 123 -5 22 -9 23 -68 19 -63 -4 -98 -15 -98
                            -31 0 -5 9 -11 20 -14 35 -9 22 -32 -60 -100 -44 -37 -80 -64 -80 -61 0 8 100
                            455 106 477 6 20 2 20 -123 -1z" />
                                    <path d="M1260 3905 c0 -17 5 -25 18 -25 24 0 42 -19 42 -46 0 -33 -117 -570
                            -129 -593 -6 -11 -21 -21 -33 -23 -14 -2 -24 -13 -29 -31 l-7 -27 261 2 261 3
                            22 76 c38 132 39 139 15 139 -14 0 -27 -13 -40 -37 -23 -46 -77 -102 -109
                            -114 -36 -14 -138 -11 -151 4 -8 10 -4 48 17 145 l27 132 68 0 c67 0 68 0 74
                            -30 10 -52 36 -34 55 40 22 84 22 120 3 120 -8 0 -15 -4 -15 -10 0 -5 -9 -19
                            -20 -30 -16 -16 -33 -20 -86 -20 -58 0 -65 2 -60 18 7 23 56 255 56 266 0 4
                            31 6 69 4 86 -4 111 -23 111 -80 0 -35 3 -39 22 -36 21 3 31 22 63 131 l14 47
                            -260 0 -259 0 0 -25z" />
                                    <path d="M6705 3916 c-92 -23 -141 -60 -170 -128 -28 -68 -15 -137 32 -180 19
                            -17 21 -16 53 17 34 35 34 35 17 64 -24 40 -22 92 4 120 25 27 78 51 112 51
                            23 0 24 -3 30 -112 4 -62 7 -221 7 -353 l0 -240 62 1 63 2 57 108 c32 60 83
                            168 114 239 32 72 61 134 66 140 4 5 8 -88 9 -205 0 -118 1 -230 2 -249 l2
                            -33 63 0 c35 0 65 2 68 5 14 14 257 525 290 611 29 73 44 100 61 107 14 5 23
                            17 23 29 0 19 -6 20 -94 20 -86 0 -94 -2 -99 -21 -4 -15 1 -22 19 -29 13 -5
                            24 -15 25 -22 5 -62 -26 -148 -141 -393 l-70 -150 0 308 0 307 -86 0 -87 0 7
                            -61 c6 -59 3 -68 -50 -198 -59 -142 -140 -321 -146 -321 -2 0 -2 130 0 290 l3
                            290 -98 -1 c-54 0 -120 -6 -148 -13z" />
                                    <path d="M2983 3870 c-55 -33 -54 -106 1 -131 78 -36 165 72 106 131 -25 25
                            -66 25 -107 0z" />
                                    <path d="M5123 3875 c-56 -24 -71 -85 -30 -123 32 -30 78 -28 116 4 25 21 31
                            34 31 64 0 63 -48 85 -117 55z" />
                                    <path d="M1960 3654 c-8 -1 -49 -6 -92 -9 -63 -5 -77 -10 -81 -25 -3 -14 1
                            -20 17 -22 33 -5 31 -39 -13 -243 -23 -102 -41 -189 -41 -193 0 -4 33 -6 72
                            -5 l73 1 7 58 c19 144 65 258 132 323 63 61 70 26 31 -153 -14 -64 -25 -131
                            -25 -149 0 -87 87 -116 169 -57 47 34 59 56 42 73 -8 8 -14 8 -23 -1 -17 -17
                            -48 -15 -48 2 0 8 14 72 30 141 38 158 39 207 5 240 -46 47 -121 28 -206 -52
                            -46 -42 -51 -45 -46 -23 11 46 19 100 16 99 -2 -1 -11 -3 -19 -5z" />
                                    <path d="M2503 3641 c-57 -27 -126 -99 -160 -169 -32 -65 -43 -168 -24 -225
                            33 -98 150 -115 239 -34 27 25 27 28 2 -62 -35 -125 -77 -181 -136 -181 -48 0
                            -63 31 -39 77 18 32 18 34 -1 48 -27 21 -32 19 -75 -24 -135 -135 107 -238
                            268 -115 87 66 111 128 173 440 22 115 43 219 46 231 4 22 2 22 -63 21 -38 -1
                            -95 2 -128 6 -49 6 -68 3 -102 -13z m127 -46 c10 -12 9 -33 -4 -108 -29 -161
                            -49 -209 -101 -243 -24 -16 -27 -16 -46 2 -19 17 -21 28 -17 105 5 100 37 178
                            94 228 39 35 56 38 74 16z" />
                                    <path d="M2925 3651 c-51 -5 -60 -9 -63 -27 -2 -15 3 -23 17 -27 29 -7 27 -37
                            -10 -209 -33 -158 -32 -199 7 -224 49 -32 167 8 188 63 11 27 -9 37 -36 19
                            -49 -32 -49 -12 2 224 22 101 40 186 40 187 0 4 -73 1 -145 -6z" />
                                    <path d="M3305 3654 c-11 -2 -50 -6 -87 -9 -53 -5 -67 -10 -71 -25 -3 -14 1
                            -20 17 -22 33 -5 31 -36 -14 -236 -22 -100 -40 -188 -40 -194 0 -9 20 -13 69
                            -13 l69 0 21 110 c25 128 63 214 120 269 68 66 76 34 36 -142 -32 -142 -33
                            -191 -2 -220 35 -33 94 -30 146 8 47 34 59 56 42 73 -8 8 -14 8 -23 -1 -18
                            -18 -48 -15 -48 6 0 9 14 73 30 142 16 69 30 139 30 157 0 125 -124 138 -235
                            24 -21 -23 -42 -41 -46 -41 -4 0 -1 24 7 53 16 60 17 67 7 66 -5 -1 -17 -3
                            -28 -5z" />
                                    <path d="M3855 3640 c-60 -31 -122 -98 -158 -170 -28 -56 -32 -75 -32 -142 0
                            -62 4 -82 21 -105 67 -91 197 -107 292 -36 44 33 68 71 54 85 -8 8 -21 2 -47
                            -21 -40 -35 -95 -42 -132 -16 -20 14 -50 91 -40 101 2 2 31 11 63 20 169 44
                            256 176 175 266 -25 29 -35 32 -92 35 -49 3 -73 -1 -104 -17z m109 -63 c18
                            -51 -24 -131 -86 -163 -37 -19 -58 -18 -58 4 0 41 33 124 62 158 37 42 68 42
                            82 1z" />
                                    <path d="M4313 3645 c-52 -22 -133 -105 -164 -167 -51 -101 -49 -217 5 -276
                            83 -93 251 -74 326 35 19 28 21 36 10 43 -10 6 -26 -2 -52 -26 -50 -45 -106
                            -48 -143 -8 -14 15 -25 35 -25 45 0 9 -3 24 -6 33 -4 11 2 17 23 21 111 25
                            181 67 219 130 58 99 5 186 -113 185 -26 -1 -63 -7 -80 -15z m98 -56 c23 -44
                            -16 -134 -73 -169 -41 -25 -68 -26 -68 -2 0 41 33 124 61 157 35 40 63 45 80
                            14z" />
                                    <path d="M4725 3653 c-16 -1 -54 -6 -82 -9 -44 -4 -53 -9 -53 -25 0 -12 7 -19
                            20 -19 28 0 26 -20 -16 -217 -19 -93 -38 -181 -40 -198 l-6 -30 70 0 70 0 21
                            108 c26 132 52 208 87 254 28 37 56 41 62 8 11 -54 45 -51 81 9 25 40 27 88 5
                            110 -36 36 -109 6 -165 -67 -25 -34 -30 -37 -25 -17 14 55 18 100 10 99 -5 -1
                            -22 -4 -39 -6z" />
                                    <path d="M5060 3651 c-56 -5 -65 -9 -68 -27 -2 -15 3 -23 17 -27 29 -7 27 -46
                            -9 -217 -16 -77 -30 -150 -30 -161 0 -35 44 -69 90 -69 67 0 160 74 130 104
                            -7 7 -14 6 -22 -2 -20 -20 -48 -14 -48 11 0 17 45 243 75 375 6 25 2 25 -135
                            13z" />
                                    <path d="M5373 3648 c-79 -9 -93 -13 -93 -28 0 -10 9 -20 20 -23 28 -7 26 -32
                            -19 -247 -22 -101 -39 -186 -38 -187 1 -1 34 -3 72 -4 67 -3 70 -2 73 22 8 64
                            36 189 54 236 20 55 100 153 124 153 21 0 18 -53 -11 -186 -30 -141 -31 -174
                            -4 -208 36 -46 122 -32 178 28 14 15 21 31 17 41 -5 14 -8 14 -31 -1 -47 -31
                            -50 -8 -16 136 39 165 40 222 6 255 -46 47 -121 28 -206 -52 -45 -42 -51 -45
                            -46 -23 10 37 20 100 16 99 -2 -1 -46 -6 -96 -11z" />
                                    <path d="M6002 3646 c-52 -24 -136 -111 -168 -173 -50 -100 -45 -231 12 -284
                            21 -20 36 -24 84 -24 51 0 63 4 99 33 23 18 41 32 41 30 0 -2 -9 -37 -21 -78
                            -36 -130 -81 -186 -145 -178 -24 2 -30 8 -32 32 -2 16 2 40 9 53 11 20 10 25
                            -7 38 -27 21 -32 19 -75 -24 -111 -110 32 -215 205 -151 66 25 127 88 163 168
                            18 42 123 515 123 557 0 3 -30 5 -67 4 -38 -1 -95 2 -128 5 -43 5 -69 2 -93
                            -8z m118 -51 c11 -13 10 -34 -4 -113 -24 -130 -43 -181 -82 -220 -28 -28 -36
                            -31 -53 -22 -65 34 -20 265 66 340 38 34 55 37 73 15z" />
                                    <path d="M7692 3634 c-55 -27 -111 -85 -142 -144 -38 -75 -43 -198 -11 -259
                            30 -56 131 -98 203 -85 52 10 124 53 156 93 55 69 75 120 80 206 3 70 1 86
                            -20 124 -48 89 -162 117 -266 65z m136 -64 c18 -34 9 -155 -17 -239 -33 -106
                            -100 -153 -137 -96 -35 53 6 280 61 339 32 34 73 32 93 -4z" />
                                    <path d="M8215 3655 c-5 -2 -45 -6 -87 -10 -68 -6 -78 -9 -78 -26 0 -12 7 -19
                            19 -19 22 0 33 -22 26 -53 -2 -12 -20 -96 -40 -187 -19 -91 -37 -174 -40 -185
                            -4 -19 0 -20 69 -17 l73 3 13 80 c24 150 94 309 135 309 8 0 21 -16 29 -35 8
                            -19 19 -35 24 -35 4 0 20 12 34 28 68 70 54 152 -25 152 -29 0 -87 -43 -123
                            -90 -15 -19 -24 -28 -21 -19 3 9 9 37 12 63 7 43 4 49 -20 41z" />
                                    <path d="M9081 3638 c-62 -32 -85 -67 -84 -126 1 -60 11 -80 81 -160 56 -63
                            67 -97 42 -127 -16 -19 -74 -19 -94 0 -22 22 -28 52 -16 75 24 45 -22 55 -62
                            13 -35 -38 -42 -66 -24 -101 45 -86 239 -86 311 0 20 24 25 40 25 87 0 62 -4
                            71 -87 169 -58 69 -64 91 -33 122 38 38 81 18 84 -40 2 -47 20 -57 50 -27 32
                            32 33 68 2 103 -20 24 -32 28 -87 32 -52 3 -72 -1 -108 -20z" />
                        </g>
                    </svg>